<svg width="34" height="35" viewBox="0 0 34 35" fill="none" xmlns="http://www.w3.org/2000/svg">
<path d="M32.1236 35C33.1598 35 34 34.135 34 33.0681V1.93172C34 0.864682 33.1599 0 32.1236 0H1.87654C0.839984 0 0 0.864682 0 1.93172V33.0681C0 34.1349 0.839852 35 1.87654 35H32.1236Z" fill="#3C5A99"/>
<path d="M23.7364 35V21.3155H28.1588L28.821 15.9825H23.7364V12.5776C23.7364 11.0336 24.1492 9.98138 26.281 9.98138L29 9.98014V5.2102C28.5298 5.1452 26.9157 5 25.0379 5C21.1177 5 18.4338 7.48534 18.4338 12.0495V15.9825H14V21.3155H18.4338V35H23.7364Z" fill="white"/>
</svg>
