<svg width="35" height="36" viewBox="0 0 35 36" fill="none" xmlns="http://www.w3.org/2000/svg">
<path d="M0 2.5232C0 1.13011 1.15795 0.000110534 2.58643 0.000110534H32.4136C33.842 0.000110534 35 1.13011 35 2.5232V32.6991C35 34.0926 33.842 35.2222 32.4136 35.2222H2.58643C1.15795 35.2222 0 34.0926 0 32.6991V2.5232V2.5232Z" fill="#006699"/>
<path fill-rule="evenodd" clip-rule="evenodd" d="M10.6097 29.4846V13.5799H5.32325V29.4846H10.6097V29.4846ZM7.96644 11.4084C9.80993 11.4084 10.9573 10.1871 10.9573 8.66078C10.923 7.10015 9.80993 5.91273 8.00141 5.91273C6.19308 5.91273 5.01074 7.10015 5.01074 8.66078C5.01074 10.1871 6.15791 11.4084 7.93198 11.4084H7.96634H7.96644Z" fill="white"/>
<path fill-rule="evenodd" clip-rule="evenodd" d="M13.5347 29.4846H18.8211V20.6027C18.8211 20.1274 18.8554 19.6525 18.995 19.3127C19.3772 18.363 20.247 17.3793 21.7074 17.3793C23.6203 17.3793 24.3855 18.8379 24.3855 20.976V29.4846H29.6715V20.3651C29.6715 15.4799 27.0634 13.2067 23.5854 13.2067C20.7335 13.2067 19.4815 14.8007 18.7859 15.8865H18.8212V13.5799H13.5348C13.6042 15.0723 13.5348 29.4846 13.5348 29.4846H13.5347Z" fill="white"/>
</svg>
