<svg width="35" height="29" viewBox="0 0 35 29" fill="none" xmlns="http://www.w3.org/2000/svg">
<path d="M17.5 12.3239L31.5493 3.53286H3.4507L17.5 12.3239ZM31.5493 24.5657V7.06573L17.5 15.7746L3.4507 7.06573V24.5657H31.5493ZM31.5493 0C32.4804 0 33.2746 0.356025 33.9319 1.06808C34.644 1.78013 35 2.60172 35 3.53286V24.5657C35 25.4969 34.644 26.3185 33.9319 27.0305C33.2746 27.7426 32.4804 28.0986 31.5493 28.0986H3.4507C2.51956 28.0986 1.69797 27.7426 0.985915 27.0305C0.328638 26.3185 0 25.4969 0 24.5657V3.53286C0 2.60172 0.328638 1.78013 0.985915 1.06808C1.69797 0.356025 2.51956 0 3.4507 0H31.5493Z" fill="#924DAE"/>
</svg>
