<svg width="35" height="35" viewBox="0 0 35 35" fill="none" xmlns="http://www.w3.org/2000/svg">
<path d="M17.5 35C7.8365 35 0 27.1635 0 17.5C0 7.8365 7.8365 0 17.5 0C27.1635 0 35 7.8365 35 17.5C35 27.1635 27.1635 35 17.5 35Z" fill="#FF4500"/>
<path d="M21.511 21.147C20.5065 21.147 19.6875 20.328 19.6875 19.3235C19.6875 18.319 20.5065 17.5 21.511 17.5C22.5155 17.5 23.3345 18.319 23.3345 19.3235C23.3345 20.328 22.5155 21.147 21.511 21.147ZM21.833 24.1395C20.587 25.382 18.2035 25.48 17.5035 25.48C16.8035 25.48 14.4165 25.382 13.174 24.1395C12.9885 23.954 12.9885 23.6565 13.174 23.471C13.3595 23.2855 13.657 23.2855 13.8425 23.471C14.6265 24.255 16.303 24.535 17.5035 24.535C18.7005 24.535 20.3805 24.255 21.1645 23.471C21.35 23.2855 21.6475 23.2855 21.833 23.471C22.015 23.6565 22.015 23.954 21.833 24.1395ZM11.6655 19.3235C11.6655 18.319 12.4845 17.5 13.489 17.5C14.4935 17.5 15.3125 18.319 15.3125 19.3235C15.3125 20.328 14.4935 21.147 13.489 21.147C12.4845 21.147 11.6655 20.328 11.6655 19.3235ZM29.1655 17.5C29.1655 16.0895 28.0245 14.9485 26.614 14.9485C25.9245 14.9485 25.3015 15.2215 24.843 15.666C23.1 14.406 20.6955 13.594 18.018 13.4995L19.18 8.02901L22.9775 8.83751C23.023 9.80351 23.814 10.5735 24.7905 10.5735C25.7985 10.5735 26.614 9.75801 26.614 8.75001C26.614 7.74201 25.7985 6.92651 24.7905 6.92651C24.073 6.92651 23.4605 7.34301 23.163 7.94501L18.921 7.04201C18.802 7.01751 18.6795 7.03851 18.578 7.10501C18.4765 7.17151 18.4065 7.27301 18.382 7.39201L17.108 13.3945C17.101 13.4295 17.108 13.461 17.108 13.496C14.3815 13.566 11.9315 14.3815 10.1605 15.659C9.70197 15.218 9.08247 14.9485 8.39647 14.9485C6.98597 14.9485 5.84497 16.093 5.84497 17.5C5.84497 18.536 6.46447 19.4285 7.35347 19.8275C7.31497 20.0795 7.29397 20.3385 7.29397 20.601C7.29397 24.528 11.865 27.7095 17.5035 27.7095C23.142 27.7095 27.713 24.528 27.713 20.601C27.713 20.342 27.692 20.0865 27.6535 19.8345C28.539 19.4355 29.1655 18.543 29.1655 17.5Z" fill="white"/>
</svg>
