<svg width="35" height="29" viewBox="0 0 35 29" fill="none" xmlns="http://www.w3.org/2000/svg">
<path d="M34.0185 0.533877C33.4844 2.20338 32.3487 3.60747 30.8704 4.49238L30.8731 4.4969L30.8758 4.50141L30.8761 4.50185C32.315 4.3308 33.6873 3.94951 34.9675 3.38845C34.0103 4.81571 32.8017 6.06761 31.408 7.07273L31.4054 7.06913L31.4058 7.07727C31.4215 7.3853 31.4267 7.69335 31.4267 8.00667C31.4267 17.4944 24.2052 28.4333 11.0001 28.4333C6.95099 28.4333 3.18278 27.2475 0.0120149 25.2185C0.568934 25.2797 1.13104 25.3153 1.70334 25.3153C5.07331 25.3153 8.16639 24.1659 10.6273 22.2379L10.624 22.2338L10.6208 22.2296L10.6198 22.2284L10.6241 22.2285C7.49057 22.1712 4.84142 20.098 3.92556 17.2528C4.36181 17.3354 4.80844 17.3818 5.27056 17.3818C5.9239 17.3818 6.56155 17.2929 7.16261 17.1309L7.16124 17.1258L7.15987 17.1207L7.15971 17.1201C3.87821 16.4615 1.40568 13.5603 1.40568 10.0854V10.0852V10.085V10.0848V10.0846V10.0845V10.0843V10.0841V10.0839V10.0837V10.0835V10.0834V10.0832V10.083V10.0828V10.0826V10.0825V10.0823V10.0821V10.0819V10.0817V10.0815V10.0814V10.0812V10.081V10.0808V10.0806V10.0805V10.0803V10.0801V10.0799V10.0797V10.0796V10.0794V10.0792V10.079V10.0788V10.0787V10.0785V10.0783V10.0781V10.0779V10.0778V10.0776V10.0774V10.0772V10.077V10.0769V10.0767V10.0765V10.0763V10.0762V10.076V10.0758V10.0756V10.0754V10.0753V10.0751V10.0749V10.0747V10.0746V10.0744V10.0742V10.074V10.0738V10.0737V10.0735V10.0733V10.0731V10.073V10.0728V10.0726V10.0724V10.0723V10.0721V10.0719V10.0717V10.0716V10.0714V10.0712V10.071V10.0709V10.0707V10.0705V10.0703V10.0702V10.07V10.0698V10.0696V10.0695V10.0693V10.0691V10.0689V10.0688V10.0686V10.0684V10.0682V10.0681V10.0679V10.0677V10.0675V10.0674V10.0672V10.067V10.0668V10.0667V10.0665V10.0663V10.0661V10.066V10.0658V10.0656V10.0654V10.0653V10.0651V10.0649V10.0648V10.0646V10.0644V10.0642V10.0641V10.0639V10.0637V10.0635V10.0634V10.0632V10.063V10.0629V10.0627V10.0625V10.0623V10.0622V10.062V10.0618V10.0617V10.0615V10.0613V10.0611V10.061V10.0608V10.0606V10.0605V10.0603V10.0601V10.0599V10.0598V10.0596V10.0594V10.0593V10.0591V10.0589V10.0587V10.0586V10.0584V10.0582V10.0581V10.0579V10.0577V10.0575V10.0574V10.0572V10.057V10.0569V10.0567V10.0565V10.0564V10.0562V10.056V10.0558V10.0557V10.0555V10.0553V10.0552V10.055V10.0548V10.0547V10.0545V10.0543V10.0541V10.054V10.0538V10.0536V10.0535V10.0533V10.0531V10.053V10.0528V10.0526V10.0525V10.0523V10.0521V10.0519V10.0518V10.0516V10.0514V10.0513V10.0511V10.0509V10.0508V10.0506V10.0504V10.0503V10.0501V10.0499V10.0497V10.0496V10.0494V10.0492V10.0491V10.0489V10.0487V10.0486V10.0484V10.0482V10.0481V10.0479V10.0477V10.0475V10.0474V10.0472V10.047V10.0469V10.0467V10.0465V10.0464V10.0462V10.046V10.0459V10.0457V10.0455V10.0454V10.0452V10.045V10.0449V10.0447V10.0445V10.0443V10.0442V10.044V10.0438V10.0437V10.0435V10.0433V10.0432V10.043V10.0428V10.0427V10.0425V10.0423V10.0422V10.042V10.0418V10.0417V10.0415V10.0413V10.0411V10.041V10.0408V10.0406V10.0405V10.0403V10.0401V10.04V10.0398V10.0396V10.0395V10.0393V10.0391V10.039V10.0388V10.0386V10.0385V10.0383V10.0381V10.038V10.0378V10.0376V10.0374V10.0373V10.0371V10.0369V10.0368V10.0366V10.0364V10.0363V10.0361V10.0359V10.0358V10.0356V10.0354V10.0353V10.0351V10.0349V10.0347V10.0346V10.0344V10.0342V10.0341V10.0339V10.0337V10.0336V10.0334V10.0332V10.0331V10.0329V10.0327V10.0326V10.0324V10.0322V10.032V10.0319V10.0317V10.0315V10.0314V10.0312V10.031V10.0309V10.0307V10.0305V10.0304V10.0302V10.03V10.0298V10.0297V10.0295V10.0293V10.0292V10.029V10.0288V10.0287V10.0285V10.0283V10.0282V10.028V10.0278V10.0276V10.0275V10.0273V10.0271V10.027V10.0268V10.0266V10.0265V10.0263V10.0261V10.0259V10.0258V10.0256V10.0254V10.0253V10.0251V10.0249V10.0248V10.0246V10.0244V10.0242V10.0241V10.0239V10.0237V10.0236V10.0234V10.0232V10.023V10.0229V10.0227V10.0225V10.0224V10.0222V10.022V10.0218V10.0217V10.0215V10.0213V10.0212V10.021V10.0208V10.0206V10.0205V10.0203V10.0201V10.02V10.0198V10.0196V10.0194V10.0193V10.0191V10.0189V10.0188V10.0186V10.0184V10.0182V10.0181V10.0179V10.0177V10.0175V10.0174V10.0172V10.017V10.0169V10.0167V10.0165V10.0163V10.0162V10.016V10.0158V10.0156V10.0155V10.0153V10.0151V10.0149V10.0148V10.0146V10.0144V10.0143V10.0141V10.0139V10.0137V10.0136V10.0134V10.0132V10.013V10.0129V10.0127V10.0125V10.0123V10.0122V10.012V10.0118V10.0116V10.0115V10.0113V10.0111V10.0109V10.0108V10.0106V10.0104V10.0102V10.0101V10.0099V10.0097V10.0095V10.0093V10.0092V10.009V10.0088V10.0086V10.0085V10.0083V10.0081V10.0079V10.0078V10.0076V10.0074V10.0072V10.007V10.0069V10.0067V10.0065V10.0063V10.0062V10.006V10.0058V10.0056V10.0055C2.37595 10.5413 3.48123 10.8637 4.6541 10.9002L4.65426 10.8949L4.65443 10.8897L4.65446 10.8887L4.65718 10.8905C2.73135 9.60665 1.46313 7.40943 1.46313 4.91995C1.46313 3.60747 1.81655 2.37815 2.43005 1.32017C5.97204 5.6634 11.2621 8.52383 17.2307 8.82147L17.231 8.81622L17.2312 8.81096L17.2319 8.79754L17.2361 8.81499C17.1108 8.29313 17.0482 7.74514 17.0482 7.18146C17.0482 3.2202 20.2631 0.00526433 24.2244 0.00526433C26.2911 0.00526433 28.1543 0.876841 29.4643 2.27033L29.4609 2.27353L29.4692 2.27189C31.0999 1.94888 32.6318 1.35573 34.0185 0.533877Z" fill="#41ABE1" stroke="black" stroke-width="0.0105287"/>
</svg>
