<svg width="35" height="35" viewBox="0 0 35 35" fill="none" xmlns="http://www.w3.org/2000/svg">
<path fill-rule="evenodd" clip-rule="evenodd" d="M12.1333 0C21.9333 0 13.0667 0 22.8667 0C32.6667 0 35 2.33333 35 12.1333C35 21.9333 35 13.0667 35 22.8667C35 32.6667 32.6667 35 22.8667 35C13.0667 35 21.9333 35 12.1333 35C2.33333 35 0 32.6667 0 22.8667C0 13.0667 0 17.6058 0 12.1333C0 2.33333 2.33333 0 12.1333 0Z" fill="#5181B8"/>
<path fill-rule="evenodd" clip-rule="evenodd" d="M28.6625 12.058C28.8247 11.5172 28.6625 11.1199 27.8907 11.1199H25.3386C24.6897 11.1199 24.3906 11.4631 24.2283 11.8416C24.2283 11.8416 22.9305 15.005 21.092 17.0599C20.4972 17.6547 20.2267 17.8439 19.9023 17.8439C19.7401 17.8439 19.5053 17.6547 19.5053 17.114V12.058C19.5053 11.4091 19.3169 11.1199 18.7761 11.1199H14.7657C14.3602 11.1199 14.1163 11.421 14.1163 11.7065C14.1163 12.3216 15.0355 12.4635 15.1303 14.1939V17.9521C15.1303 18.7761 14.9815 18.9255 14.657 18.9255C13.7919 18.9255 11.6873 15.748 10.4392 12.112C10.1946 11.4053 9.94921 11.1199 9.29697 11.1199H6.74488C6.01572 11.1199 5.86987 11.4631 5.86987 11.8416C5.86987 12.5176 6.73509 15.8703 9.89845 20.3044C12.0073 23.3326 14.9786 24.974 17.6824 24.974C19.3046 24.974 19.5053 24.6095 19.5053 23.9815V21.6928C19.5053 20.9636 19.659 20.8181 20.1727 20.8181C20.5512 20.8181 21.2001 21.0074 22.7142 22.4674C24.4446 24.1978 24.7299 24.974 25.7032 24.974H28.2553C28.9845 24.974 29.3491 24.6095 29.1387 23.89C28.9086 23.1729 28.0824 22.1325 26.9862 20.8992C26.3913 20.1962 25.4991 19.4392 25.2287 19.0606C24.8502 18.574 24.9583 18.3577 25.2287 17.9251C25.2287 17.9251 28.338 13.545 28.6625 12.058Z" fill="white"/>
</svg>
