<svg width="208" height="208" viewBox="0 0 208 208" fill="none" xmlns="http://www.w3.org/2000/svg">
<g filter="url(#filter0_d)">
<circle cx="104" cy="100" r="100" fill="#FF5934" fill-opacity="0.3"/>
<circle cx="104" cy="100" r="70" fill="url(#paint0_linear)"/>
<circle cx="104" cy="64" r="15" fill="url(#paint1_linear)"/>
<g clip-path="url(#clip0)">
<path d="M119.001 63.9999C119.001 72.2842 112.285 79 104.001 79C95.7167 79 89.001 72.2842 89.001 63.9999C89.001 55.7157 95.7167 49 104.001 49C112.285 49 119.001 55.7157 119.001 63.9999Z" fill="#BEBEBE"/>
<path d="M115.815 64C115.815 70.525 110.526 75.8153 104 75.8153C97.4749 75.8153 92.1847 70.525 92.1847 64C92.1847 57.4745 97.4749 52.1846 104 52.1846C110.526 52.1846 115.815 57.4744 115.815 64Z" fill="#BEBEBE"/>
<path d="M103.123 68.0073L104.098 64.3386L106.404 63.4959L106.978 61.3399L106.959 61.2864L104.688 62.1159L106.324 55.9558H101.684L99.5449 63.9948L97.7586 64.6474L97.1683 66.8701L98.9533 66.2181L97.6923 70.9559H110.04L110.832 68.0073H103.123Z" fill="white"/>
</g>
</g>
<defs>
<filter id="filter0_d" x="0" y="0" width="208" height="208" filterUnits="userSpaceOnUse" color-interpolation-filters="sRGB">
<feFlood flood-opacity="0" result="BackgroundImageFix"/>
<feColorMatrix in="SourceAlpha" type="matrix" values="0 0 0 0 0 0 0 0 0 0 0 0 0 0 0 0 0 0 127 0"/>
<feOffset dy="4"/>
<feGaussianBlur stdDeviation="2"/>
<feColorMatrix type="matrix" values="0 0 0 0 0 0 0 0 0 0 0 0 0 0 0 0 0 0 0.25 0"/>
<feBlend mode="normal" in2="BackgroundImageFix" result="effect1_dropShadow"/>
<feBlend mode="normal" in="SourceGraphic" in2="effect1_dropShadow" result="shape"/>
</filter>
<linearGradient id="paint0_linear" x1="104" y1="30" x2="104" y2="170" gradientUnits="userSpaceOnUse">
<stop stop-color="white"/>
<stop offset="1" stop-color="#C5D6EC"/>
</linearGradient>
<linearGradient id="paint1_linear" x1="104" y1="49" x2="104" y2="79" gradientUnits="userSpaceOnUse">
<stop stop-color="white"/>
<stop offset="1" stop-color="#C5D6EC"/>
</linearGradient>
<clipPath id="clip0">
<rect width="30" height="30" fill="white" transform="translate(89 49)"/>
</clipPath>
</defs>
</svg>
