<svg width="23" height="16" viewBox="0 0 23 16" fill="none" xmlns="http://www.w3.org/2000/svg">
<path d="M9.17438 5.89062C9.76813 5.29688 10.4713 5 11.2838 5C12.0963 5 12.7994 5.29688 13.3931 5.89062C13.9869 6.48438 14.2838 7.1875 14.2838 8C14.2838 8.8125 13.9869 9.51562 13.3931 10.1094C12.7994 10.7031 12.0963 11 11.2838 11C10.4713 11 9.76813 10.7031 9.17438 10.1094C8.58063 9.51562 8.28375 8.8125 8.28375 8C8.28375 7.1875 8.58063 6.48438 9.17438 5.89062ZM7.72125 11.5625C8.72125 12.5312 9.90875 13.0156 11.2838 13.0156C12.6588 13.0156 13.8306 12.5312 14.7994 11.5625C15.7994 10.5625 16.2994 9.375 16.2994 8C16.2994 6.625 15.7994 5.45312 14.7994 4.48438C13.8306 3.48438 12.6588 2.98438 11.2838 2.98438C9.90875 2.98438 8.72125 3.48438 7.72125 4.48438C6.7525 5.45312 6.26813 6.625 6.26813 8C6.26813 9.375 6.7525 10.5625 7.72125 11.5625ZM4.58063 2.5625C6.58063 1.1875 8.815 0.5 11.2838 0.5C13.7525 0.5 15.9869 1.1875 17.9869 2.5625C19.9869 3.9375 21.4244 5.75 22.2994 8C21.4244 10.25 19.9869 12.0625 17.9869 13.4375C15.9869 14.8125 13.7525 15.5 11.2838 15.5C8.815 15.5 6.58063 14.8125 4.58063 13.4375C2.58063 12.0625 1.14313 10.25 0.268127 8C1.14313 5.75 2.58063 3.9375 4.58063 2.5625Z" fill="#0F67F0"/>
</svg>
