<svg width="50" height="50" viewBox="0 0 50 50" fill="none" xmlns="http://www.w3.org/2000/svg">
<g clip-path="url(#clip0)">
<path d="M49.9997 24.9999C49.9997 38.807 38.807 50 25 50C11.1928 50 0 38.807 0 24.9999C0 11.1928 11.1928 1.52588e-05 25 1.52588e-05C38.8069 1.52588e-05 49.9997 11.1928 49.9997 24.9999Z" fill="#BEBEBE"/>
<path d="M44.692 25.0001C44.692 35.8751 35.8756 44.6923 25 44.6923C14.1246 44.6923 5.30762 35.8751 5.30762 25.0001C5.30762 14.1243 14.1246 5.30771 25 5.30771C35.8757 5.30771 44.692 14.1241 44.692 25.0001Z" fill="#BEBEBE"/>
<path d="M23.5395 31.6784L25.1633 25.564L29.0077 24.1595L29.964 20.5661L29.9313 20.4769L26.1471 21.8594L28.8737 11.5927H21.1409L17.5752 24.991L14.598 26.0786L13.6143 29.7832L16.5891 28.6965L14.4876 36.5928H35.0675L36.3868 31.6784H23.5395Z" fill="white"/>
</g>
<defs>
<clipPath id="clip0">
<rect width="50" height="50" fill="white"/>
</clipPath>
</defs>
</svg>
