<svg width="20" height="18" viewBox="0 0 20 18" fill="none" xmlns="http://www.w3.org/2000/svg">
<path d="M18.0156 15V5.01562H1.98438V15H18.0156ZM18.0156 3C18.5469 3 19 3.20312 19.375 3.60938C19.7812 4.01563 19.9844 4.48438 19.9844 5.01562V15C19.9844 15.5312 19.7812 16 19.375 16.4062C19 16.8125 18.5469 17.0156 18.0156 17.0156H1.98438C1.45312 17.0156 0.984375 16.8125 0.578125 16.4062C0.203125 16 0.015625 15.5312 0.015625 15V3C0.015625 2.46875 0.203125 2 0.578125 1.59375C0.984375 1.1875 1.45312 0.984375 1.98438 0.984375H7.98438L10 3H18.0156Z" fill="url(#paint0_linear)"/>
<defs>
<linearGradient id="paint0_linear" x1="10" y1="-3" x2="10" y2="21" gradientUnits="userSpaceOnUse">
<stop stop-color="#5C26C8"/>
<stop offset="1" stop-color="#4272E8"/>
</linearGradient>
</defs>
</svg>
