<svg width="20" height="17" viewBox="0 0 20 17" fill="none" xmlns="http://www.w3.org/2000/svg">
<path d="M9.98438 7.03125L18 2.01562H1.96875L9.98438 7.03125ZM18 14.0156V4.03125L9.98438 9L1.96875 4.03125V14.0156H18ZM18 0C18.5312 0 18.9844 0.203125 19.3594 0.609375C19.7656 1.01562 19.9688 1.48438 19.9688 2.01562V14.0156C19.9688 14.5469 19.7656 15.0156 19.3594 15.4219C18.9844 15.8281 18.5312 16.0312 18 16.0312H1.96875C1.4375 16.0312 0.96875 15.8281 0.5625 15.4219C0.1875 15.0156 0 14.5469 0 14.0156V2.01562C0 1.48438 0.1875 1.01562 0.5625 0.609375C0.96875 0.203125 1.4375 0 1.96875 0H18Z" fill="#0F67F0"/>
</svg>
