<svg width="18" height="24" viewBox="0 0 18 24" fill="none" xmlns="http://www.w3.org/2000/svg">
<path d="M9 18.5V15.25L13.3164 19.5664L9 23.9336V20.6836C6.63021 20.6836 4.58203 19.8372 2.85547 18.1445C1.16276 16.418 0.316406 14.3698 0.316406 12C0.316406 10.3073 0.773438 8.76693 1.6875 7.37891L3.26172 8.95312C2.75391 9.86719 2.5 10.8828 2.5 12C2.5 13.7943 3.1263 15.3346 4.37891 16.6211C5.66536 17.8737 7.20573 18.5 9 18.5ZM9 3.31641C11.3698 3.31641 13.401 4.17969 15.0938 5.90625C16.8203 7.59896 17.6836 9.63021 17.6836 12C17.6836 13.6927 17.2266 15.2331 16.3125 16.6211L14.7383 15.0469C15.2461 14.1328 15.5 13.1172 15.5 12C15.5 10.2057 14.8568 8.68229 13.5703 7.42969C12.3177 6.14323 10.7943 5.5 9 5.5V8.75L4.68359 4.43359L9 0.0664062V3.31641Z" fill="#0F67F0"/>
</svg>
