<svg width="36" height="22" viewBox="0 0 36 22" fill="none" xmlns="http://www.w3.org/2000/svg">
<g filter="url(#filter0_d)">
<path d="M25 6.07292e-05C28.866 6.08982e-05 32 3.13406 32 7.00005C32 10.866 28.866 14 25 14L11 14C7.134 14 4 10.866 4 7.00005C4 3.13406 7.134 5.99482e-05 11 6.01172e-05L25 6.07292e-05Z" fill="white"/>
<path d="M25 0.500061C28.5899 0.500061 31.5 3.41021 31.5 7.00005C31.5 10.5899 28.5899 13.5 25 13.5L11 13.5C7.41014 13.5 4.5 10.5899 4.5 7.00005C4.5 3.41021 7.41014 0.50006 11 0.50006L25 0.500061Z" stroke="#DEDEDE"/>
</g>
<path d="M22 5.00006L22 9.00007M18.3309 5.00006L18.3309 9.00007M14.6619 5.00006L14.6619 9.00007" stroke="#DEDEDE"/>
<path d="M22 5.00006L22 9.00007M18.3309 5.00006L18.3309 9.00007M14.6619 5.00006L14.6619 9.00007" stroke="#DEDEDE"/>
<defs>
<filter id="filter0_d" x="0" y="6.10352e-05" width="36" height="22" filterUnits="userSpaceOnUse" color-interpolation-filters="sRGB">
<feFlood flood-opacity="0" result="BackgroundImageFix"/>
<feColorMatrix in="SourceAlpha" type="matrix" values="0 0 0 0 0 0 0 0 0 0 0 0 0 0 0 0 0 0 127 0"/>
<feOffset dy="4"/>
<feGaussianBlur stdDeviation="2"/>
<feColorMatrix type="matrix" values="0 0 0 0 0 0 0 0 0 0 0 0 0 0 0 0 0 0 0.25 0"/>
<feBlend mode="normal" in2="BackgroundImageFix" result="effect1_dropShadow"/>
<feBlend mode="normal" in="SourceGraphic" in2="effect1_dropShadow" result="shape"/>
</filter>
</defs>
</svg>
